<svg id="Capa_1" height="512" width="512" xmlns="http://www.w3.org/2000/svg"><g fill="#fff"><path d="M397.621 62.61c0-5.523-4.477-10-10-10h-.057c-5.523 0-9.972 4.477-9.972 10s4.505 10 10.028 10 10.001-4.477 10.001-10zm53.941 0c0-5.523-4.477-10-10-10h-.057c-5.523 0-9.972 4.477-9.972 10s4.505 10 10.028 10 10.001-4.477 10.001-10zm-107.854 0c0-5.523-4.477-10-10-10h-.057c-5.523 0-9.972 4.477-9.972 10s4.505 10 10.028 10 10.001-4.477 10.001-10zm-283.27 0c0 5.523 4.477 10 10 10h150.116c5.523 0 10-4.477 10-10s-4.477-10-10-10H70.438c-5.522 0-10 4.477-10 10z"/><path d="M479.714 0H167.067c-5.523 0-10 4.477-10 10s4.477 10 10 10h312.647c6.662 0 12.081 5.407 12.081 12.053v73.167H20.205V32.053C20.205 25.407 25.612 20 32.258 20H77.27c5.523 0 10-4.477 10-10s-4.477-10-10-10H32.258C14.584 0 .205 14.379.205 32.053v447.865C.205 497.608 14.584 512 32.258 512h447.456c17.689 0 32.081-14.392 32.081-32.082V32.053C511.795 14.379 497.403 0 479.714 0zm0 492H32.258c-6.646 0-12.053-5.42-12.053-12.082V125.22h471.59v354.698c0 6.662-5.42 12.082-12.081 12.082z"/><path d="M93.653 382.613c-22.972 0-41.662 18.689-41.662 41.662 0 22.957 18.689 41.634 41.662 41.634 22.957 0 41.633-18.677 41.633-41.634 0-22.972-18.676-41.662-41.633-41.662zm0 63.297c-11.944 0-21.662-9.705-21.662-21.634 0-11.944 9.717-21.662 21.662-21.662 11.928 0 21.633 9.718 21.633 21.662 0 11.929-9.704 21.634-21.633 21.634zm108.222-63.297c-22.957 0-41.633 18.689-41.633 41.662 0 22.957 18.677 41.634 41.633 41.634s41.633-18.677 41.633-41.634c0-22.972-18.676-41.662-41.633-41.662zm0 63.297c-11.929 0-21.633-9.705-21.633-21.634 0-11.944 9.705-21.662 21.633-21.662s21.633 9.718 21.633 21.662c0 11.929-9.704 21.634-21.633 21.634zm108.222-63.297c-22.957 0-41.633 18.689-41.633 41.662 0 22.957 18.677 41.634 41.633 41.634 22.972 0 41.662-18.677 41.662-41.634-.001-22.972-18.69-41.662-41.662-41.662zm0 63.297c-11.929 0-21.633-9.705-21.633-21.634 0-11.944 9.705-21.662 21.633-21.662 11.944 0 21.662 9.718 21.662 21.662-.001 11.929-9.718 21.634-21.662 21.634zm108.25-63.297c-22.972 0-41.662 18.689-41.662 41.662 0 22.957 18.689 41.634 41.662 41.634 22.957 0 41.633-18.677 41.633-41.634 0-22.972-18.677-41.662-41.633-41.662zm0 63.297c-11.944 0-21.662-9.705-21.662-21.634 0-11.944 9.717-21.662 21.662-21.662 11.929 0 21.633 9.718 21.633 21.662 0 11.929-9.705 21.634-21.633 21.634zM52.027 333.874c.36 5.17 4.778 9.298 9.979 9.298h223.813c5.457 0 10.014-4.553 10.014-10V163.918c0-5.523-4.477-10-10-10H61.992c-5.523 0-10 4.477-10 10v169.253l.035.703zm165.777-10.702l-18.631-29.364 24.923-39.259 43.548 68.623zm-23.686 0H80.183l56.978-89.767zm81.715-149.254v124.833l-43.292-68.22a9.998 9.998 0 00-16.885-.001l-28.324 44.616-41.725-65.76a10.002 10.002 0 00-8.443-4.643h-.001a10.001 10.001 0 00-8.443 4.641l-56.729 89.373V173.918zm62.212 0h111.538c5.523 0 10-4.477 10-10s-4.477-10-10-10H338.045c-5.523 0-10 4.477-10 10s4.477 10 10 10zm0 55.416h111.538c5.523 0 10-4.477 10-10s-4.477-10-10-10H338.045c-5.523 0-10 4.477-10 10s4.477 10 10 10zm0 55.389h111.538c5.523 0 10-4.477 10-10s-4.477-10-10-10H338.045c-5.523 0-10 4.477-10 10s4.477 10 10 10zm0 55.387h111.538c5.523 0 10-4.477 10-10s-4.477-10-10-10H338.045c-5.523 0-10 4.477-10 10s4.477 10 10 10zM122.168 20h.057c5.523 0 9.972-4.477 9.972-10s-4.505-10-10.028-10-10 4.477-10 10 4.477 10 9.999 10z"/></g></svg>